<svg width="1248" height="598" viewBox="0 0 1248 598" fill="none" xmlns="http://www.w3.org/2000/svg">
<g clip-path="url(#clip0_174_4)">
<g clip-path="url(#clip1_174_4)">
<path d="M1104.71 492.179L956.551 84.2692L956.449 84H953.525L923.016 167.824L867.473 320.428L867.343 320.307C848.093 303.321 820.934 292.703 786.73 288.749L776.298 287.672L786.647 286.345C843.053 276.209 880.969 240.585 880.969 197.666C880.969 138.809 825.612 97.7279 746.317 97.7279H581.332V100.707H629.273V404.828L512.841 84.2692L512.739 84H509.815L479.306 167.824L361.63 491.13L360.906 491.214C358.895 491.462 356.906 491.659 354.938 491.808C351.977 492.04 349.035 492.179 346.083 492.179H227.183L453.196 100.707L454.876 97.765H178.453V218.865H181.386C181.906 159.879 216.258 100.707 292.156 100.707H383.721L156 495.112H462.784V379.089H459.851C459.452 430.501 430.307 479.333 366.93 490.36L364.916 490.703L413.182 358.038H548.391L597.111 492.179H549.05V495.112H737.685V492.179H689.419V289.835H745.111C801.786 289.835 834.291 315.155 834.291 359.281V395.174C834.291 399.129 834.56 404.911 834.857 409.747V409.923L804.923 492.161H765.818V495.094H846.766V492.161H808.079L835.34 417.275C835.395 417.999 835.423 418.435 835.423 418.435L836.175 425.183L836.899 429.647C841.447 457.261 852.01 477.56 868.281 489.979L870.62 491.678C882.983 500.273 898.345 504.626 916.305 504.626C940.095 504.626 955.957 498.695 969.054 484.735L967.337 483.12C955.27 494.258 945.144 498.769 932.456 498.769C910.838 498.769 899.524 472.548 899.524 446.689V396.4C899.639 383.921 897.685 371.51 893.741 359.671L893.203 358.112V358.056H992.101L1040.82 492.198H992.76V495.131H1156V492.198L1104.71 492.179ZM414.259 355.105L480.865 172.113L547.323 355.105H414.259ZM689.447 286.892V100.707H731.958C788.745 100.707 818.725 134.465 818.725 198.297C818.725 266.184 801.516 286.892 745.111 286.892H689.447ZM892.052 355.105L891.764 354.381C887.369 343.677 880.971 333.91 872.912 325.607L870.128 322.822L869.831 322.544L924.538 172.113L990.996 355.105H892.052Z" fill="black"/>
</g>
<path d="M196.956 271.419C196.956 271.419 197.22 270.843 197.767 270.256C198.313 269.67 198.86 269.083 199.426 269.063C201.125 269.002 203.76 271.458 205.273 274.238C206.17 275.624 206.541 278.161 207.925 285.482C208.247 286.604 208.579 288.009 208.891 288.849C209.203 289.688 209.554 291.659 209.641 294.207C210.002 296.462 210.372 299 210.684 299.839C210.997 300.678 211.319 301.801 211.338 302.367C211.972 304.328 213.23 307.968 214.45 310.476C215.348 311.861 216.265 313.812 216.587 314.934C217.845 318.574 218.714 319.11 224.103 319.2C228.925 319.31 233.767 319.986 239.194 321.208C241.478 321.693 244.055 322.451 244.621 322.43C246.056 322.946 247.218 323.754 247.247 324.604C247.266 325.17 245.899 326.637 245.05 326.667C244.484 326.687 243.088 327.305 241.975 327.911C238.362 330.026 237.523 330.339 231.011 330.573C225.349 330.777 225.066 330.787 223.68 331.687C220.058 333.518 219.579 336.087 219.497 350.263C219.486 358.2 219.016 361.052 217.141 364.237C216.594 364.824 216.35 365.966 216.086 366.543C215.823 367.119 215.286 367.989 215.022 368.565C214.202 369.445 213.919 369.455 213.333 368.909C211.898 368.394 210.62 364.188 209.85 358.263C209.48 355.725 208.485 351.509 207.822 348.698C207.159 345.887 206.457 341.944 206.116 340.255C205.726 337.151 205.716 336.868 204.848 336.333C203.686 335.524 201.412 335.322 195.75 335.526C189.805 335.739 189.805 335.739 189.033 338.035C188.525 339.754 188.31 341.746 187.829 352.535C187.251 360.493 187.074 363.617 185.696 373.021C185.5 375.579 185.06 379.28 185.137 381.545C184.922 383.537 184.707 385.529 184.443 386.105C183.906 386.975 180.908 390.484 180.069 390.798C179.219 390.829 178.351 390.293 177.463 389.191C175.97 386.977 174.713 375.117 175.339 368.574C175.272 366.593 175.4 362.052 175.254 357.806C175.08 352.71 175.246 349.302 175.433 346.461C175.844 341.911 175.766 339.646 174.566 337.704C173.658 336.036 172.78 335.217 169.862 332.771C168.983 331.952 168.681 331.396 168.662 330.83C168.623 329.698 169.404 327.685 170.517 327.078C177.176 322.87 177.44 322.294 178.378 316.591C178.789 312.041 179.825 309.169 181.426 306.277C182.217 304.548 183.282 302.525 183.819 301.655C184.073 300.796 185.411 298.48 186.495 297.024C188.653 293.828 189.181 292.675 189.122 290.976C189.093 290.127 190.608 284.687 191.672 282.664C191.926 281.805 193 280.065 193.528 278.913C194.876 276.88 196.985 272.269 196.956 271.419ZM199.954 309.296C199.915 308.163 199.281 306.202 198.403 305.383C197.524 304.564 197.524 304.564 196.421 305.454C195.308 306.061 194.272 308.933 193.353 315.202C192.161 321.765 192.151 321.482 197.227 320.732C201.455 320.014 202.294 319.7 202.812 318.264C203.339 317.111 203.33 316.828 201.846 314.897C200.656 313.239 200.022 311.278 199.954 309.296Z" fill="#ED3D3D"/>
<path d="M130.287 247.103C130.508 247.923 130.878 249.291 131.616 252.025C132.673 257.025 132.895 257.846 133.707 260.854C134.645 263.238 134.815 264.956 134.316 267.453C133.817 269.95 131.881 272.56 130.047 273.374C129.031 273.957 129.031 273.957 127.992 273.368C127.299 272.976 126.805 272.233 125.89 271.02C125.322 270.003 124.408 268.79 123.641 268.125C122.875 267.459 121.688 266.323 120.847 265.384C120.081 264.718 118.547 263.386 117.78 262.72C116.52 261.311 112.936 256.733 111.948 255.247C111.8 254.7 110.761 254.111 109.647 253.249C107.223 251.876 105.542 249.997 103.071 246.281C102.009 244.521 99.6857 241.352 97.8569 238.927C93.5573 232.785 90.9898 227.624 86.6724 217.071C85.2409 213.944 83.1675 209.527 82.2301 207.143C80.8725 204.289 79.7874 201.358 78.2591 196.786C75.9183 189.206 75.2025 187.642 73.1012 185.294C72.2606 184.354 71.3462 183.142 70.9259 182.672C69.9376 181.185 67.0008 174.658 64.0919 166.061C62.1434 161.019 61.0583 158.088 60.638 157.618C60.2177 157.149 59.2294 155.662 58.5137 154.099C56.3894 150.579 54.856 149.247 54.3339 150.573C54.1581 152.095 54.4256 155.258 54.9427 157.172C55.3859 158.813 55.6075 159.634 55.5056 161.429C55.4037 163.224 55.8928 167.208 56.7512 172.558C57.416 175.02 58.007 177.208 60.302 182.445C61.9551 186.393 62.7676 189.401 63.2796 194.556C63.8655 199.984 64.7519 203.266 68.4682 218.111C70.0424 225.025 72.2584 233.23 72.7984 236.315C74.0033 241.862 75.5545 247.605 78.0201 254.561C81.5199 265.346 82.5312 268.004 83.2928 271.91C83.8328 274.995 84.2021 276.363 84.9179 277.926C85.4349 279.841 85.7304 280.935 86.543 283.943C87.083 287.028 87.4523 288.396 88.2419 290.233C88.6851 291.874 89.2761 294.062 90.3102 297.89C91.3673 302.89 91.4412 303.164 91.2884 305.857C91.1126 307.379 91.2833 309.097 91.431 309.644C92.2436 312.652 92.0118 318.312 91.1433 319.442C90.746 320.143 90.746 320.143 89.7806 319.828C88.6166 319.864 88.6166 319.864 86.2477 314.352C84.5946 310.405 83.5325 308.645 82.05 306.415C80.9879 304.656 80.8402 304.109 79.9537 300.827C79.3628 298.639 78.4993 296.528 78.2038 295.434C77.7097 294.691 77.0449 292.23 76.2553 290.393C74.8747 286.368 74.0851 284.531 72.3301 282.379C70.5013 279.953 69.8594 278.663 66.8537 268.621C63.0355 255.571 53.234 220.369 52.7679 217.557C52.3986 216.19 52.1311 213.027 51.8127 210.762C50.9823 203.342 50.6639 201.077 49.0846 197.403C48.4198 194.942 47.9766 193.301 47.6811 192.207C47.7321 191.309 47.0443 187.676 46.1579 184.395C43.1853 169.044 42.7931 166.505 41.3589 149.247C40.8698 145.263 40.1133 138.117 39.749 133.51C37.9863 120.466 37.6501 113.789 37.5303 111.173C37.7799 109.925 38.3021 108.599 38.972 107.82C39.6418 107.042 41.0045 106.655 42.2424 106.893C43.4803 107.131 48.33 109.878 49.8634 111.21C51.1242 112.619 52.4589 114.301 53.3224 116.412C54.8278 119.813 56.2593 122.94 60.1615 129.783C62.3596 133.576 65.3474 139.206 66.7051 142.06C69.9883 148.784 70.6302 150.074 73.4473 153.986C75.9919 157.976 76.9293 160.36 78.3328 165.556L79.4408 169.658L80.6277 170.794C81.8886 172.203 82.8769 173.689 84.0358 176.894C84.3313 177.988 85.3934 179.748 85.9614 180.764C87.0975 182.798 88.1596 184.557 93.096 195.229C99.1684 207.934 99.1684 207.934 99.5377 209.302C100.327 211.139 101.191 213.249 102.327 215.283C102.895 216.299 103.957 218.059 104.525 219.076C105.241 220.639 105.661 221.109 106.848 222.245C108.802 224.046 109.222 224.516 110.852 227.292C112.261 229.248 112.755 229.992 113.448 230.384C114.14 230.776 114.14 230.776 114.265 230.152C114.663 229.451 113.85 226.442 112.862 224.956C112.714 224.409 112.146 223.392 111.998 222.845C111.851 222.299 111.209 221.008 110.913 219.914C109.777 217.881 108.965 214.873 108.425 211.787C108.18 209.796 108.106 209.522 107.317 207.685C106.328 206.199 106.181 205.652 104.038 197.721C102.118 190.61 101.675 188.969 100.391 186.389C98.59 181.894 97.8513 179.16 97.7086 175.373C97.566 171.585 97.1228 169.945 94.9297 162.911C93.9184 160.254 93.4752 158.613 93.1568 156.348C92.8155 152.911 91.0707 144.279 89.5933 138.809C88.5362 133.809 88.3655 132.091 88.3706 128.851C88.5464 127.329 88.6482 125.534 88.4266 124.713C88.6024 123.191 88.7042 121.396 89.1016 120.694C89.5728 120.266 89.5728 120.266 90.4643 120.308C91.7022 120.546 91.7022 120.546 92.6905 122.032C93.2585 123.049 93.9003 124.339 94.2468 124.535C95.6553 126.491 96.7913 128.524 97.6778 131.806C98.4674 133.643 99.3309 135.754 99.6263 136.848C100.268 138.138 100.49 138.958 100.711 139.779C100.66 140.677 101.473 143.685 103.643 149.547C106.058 157.401 106.28 158.221 106.229 159.119C106.252 160.29 106.473 161.11 107.212 163.845C107.729 165.76 108.837 169.862 109.576 172.597C110.388 175.605 111.57 179.981 112.161 182.169C112.826 184.63 113.786 188.185 114.303 190.1C114.82 192.014 115.928 196.116 116.815 199.398C119.525 208.346 121.542 216.901 123.537 224.285C125.259 231.746 129.298 245.616 130.287 247.103ZM193.784 191.707C195.71 195.578 196.153 197.218 195.852 199.365C195.478 201.237 195.155 202.212 194.138 202.795C193.593 202.949 192.725 204.079 192.129 205.131C189.994 208.092 189.052 208.948 184.788 211.629C182.755 212.794 180.524 214.31 179.508 214.893C178.838 215.671 177.277 216.408 176.533 216.914C175.715 217.146 172.74 219.167 169.691 220.915C151.694 232.495 150.53 232.53 148.138 225.848C147.422 224.284 146.706 222.721 146.485 221.9C145.99 221.157 145.422 220.14 145.201 219.32C144.905 218.226 144.536 216.859 144.042 216.115C142.684 213.262 140.718 203.809 140.155 199.552C140.183 197.483 139.791 194.944 139.768 193.773C139.398 192.406 139.302 190.961 139.551 189.713C139.653 187.917 139.653 187.917 138.494 184.713C136.892 179.867 136.375 177.953 135.914 171.901C135.425 167.917 135.032 165.379 134.419 162.02C133.384 158.191 133.288 156.746 133.191 155.302C133.367 153.78 133.071 152.686 131.201 144.678C129.281 137.567 128.69 135.379 128.866 133.857C128.746 131.241 127.735 128.584 125.957 125.26C124.821 123.227 124.525 122.133 123.145 118.108L121.741 112.912L120.208 111.58C118.947 110.171 118.873 109.898 118.504 108.53C118.208 107.436 118.061 106.889 118.384 105.914C118.781 105.213 119.179 104.511 119.378 104.161C119.849 103.733 126.293 100.433 128.598 99.1909C129.614 98.6083 132.266 97.5621 134.174 97.0212C137.643 95.7431 137.841 95.3924 139.8 93.9537C141.486 92.5924 143.791 91.3499 145.625 90.5355C145.898 90.4583 147.732 89.6439 149.912 89.0257C152.637 88.2529 153.455 88.0211 154.074 88.14C155.039 88.4552 157.118 89.6324 157.958 90.5718C158.305 90.768 159.736 93.8953 161.168 97.0225C163.809 102.457 163.883 102.73 166.002 109.49C167.701 115.78 168.269 116.797 170.218 121.838C172.291 126.256 173.081 128.093 174.41 133.015C175.495 135.946 176.751 140.596 177.615 142.706C178.626 145.364 180.08 149.662 181.705 155.679C183.995 164.157 185.893 170.096 187.472 173.77C187.694 174.591 189.001 178.342 189.961 181.897C192.006 188.384 192.08 188.657 193.784 191.707ZM180.526 196.938C180.43 195.494 177.299 186.076 175.868 182.949C175.3 181.932 174.436 179.822 173.868 178.805C172.584 176.225 170.539 169.738 168.323 161.534C167.289 157.705 166.181 153.603 165.539 152.313C165.244 151.219 163.715 146.647 162.386 141.724C160.391 134.34 159.749 133.05 158.886 130.94C158.244 129.65 157.233 126.992 156.074 123.787C155.335 121.053 153.807 116.481 152.796 113.823C151.784 111.166 150.699 108.235 150.33 106.867C149.887 105.226 149.739 104.679 149.466 104.757C148.774 104.364 147.337 104.477 146.321 105.06C146.122 105.41 144.214 105.951 142.925 106.611C136.731 108.662 135.715 109.245 135.266 110.844C134.818 112.443 134.915 113.888 136.42 117.288C137.136 118.852 138.073 121.236 138.641 122.253C139.777 124.286 140.59 127.294 140.414 128.816C140.063 131.86 140.432 133.228 141.762 138.15C143.216 142.449 143.165 143.346 143.779 146.706C144.388 153.305 144.854 156.117 145.911 161.117C147.042 166.39 148.196 172.835 148.486 177.169C148.902 180.879 149.515 184.238 151.459 192.519C152.959 199.16 153.107 199.707 153.823 201.271C155.453 204.047 156.413 207.603 156.607 210.492C156.851 212.484 156.999 213.031 157.493 213.774C158.135 215.064 159.373 215.302 160.736 214.915C162.098 214.529 162.098 214.529 165.595 211.182C166.538 210.326 169.365 207.758 172.266 205.463C180.027 199.435 180.498 199.007 180.526 196.938ZM274.314 96.74C274.734 97.2097 274.956 98.0301 274.831 98.6544C274.706 99.2786 273.69 99.8612 268.438 101.056C262.913 102.328 260.534 103.297 258.501 104.462C257.559 105.318 257.014 105.473 254.76 105.817L252.579 106.435L251.983 107.488C251.387 108.54 250.717 109.319 248.412 110.561C247.669 111.067 246.38 111.726 245.909 112.154C245.239 112.933 244.694 113.088 241.696 113.938L237.88 115.02L237.483 115.721C236.688 117.124 236.836 117.671 238.069 121.149C240.091 126.464 240.506 130.174 240.104 134.116C239.854 135.364 240.002 135.911 241.133 141.185C241.673 144.27 242.508 148.45 242.679 150.168C243.219 153.253 243.367 153.8 244.304 156.184C244.895 158.372 245.929 162.201 247.554 168.218C249.918 176.969 250.163 178.961 250.947 184.038C251.362 187.748 254.243 198.413 257.669 208.925C260.947 218.889 262.277 223.812 262.766 227.795C263.38 231.154 264.659 236.974 267.346 244.751C270.426 255.066 271.215 256.903 275.561 265.387C277.265 268.437 279.19 272.307 279.98 274.144C281.905 278.015 283.041 280.048 285.734 284.584C290.403 292.093 291.391 293.58 292.499 297.682C293.141 298.972 293.584 300.613 294.004 301.083C294.72 302.646 294.669 303.544 293.999 304.323C293.256 304.828 292.983 304.905 291.597 304.121C290.138 303.062 288.877 301.653 287.815 299.893C287.395 299.424 286.753 298.134 286.259 297.39C285.418 296.451 284.85 295.434 284.702 294.887C283.714 293.401 281.613 291.053 280.153 289.994C279.386 289.328 277.853 287.997 277.086 287.331C276.246 286.391 275.059 285.256 274.292 284.59C273.105 283.454 271.424 281.576 271.129 280.482C270.907 279.661 269.646 278.252 268.335 277.741C266.33 276.837 265.836 276.094 265.466 274.726C265.517 273.829 265.171 273.632 264.404 272.967C263.638 272.301 263.143 271.557 262.502 270.267C261.366 268.234 260.945 267.764 258.719 266.04C257.879 265.101 257.038 264.161 256.618 263.692C255.976 262.402 255.902 262.128 253.345 250.487C252.805 247.402 252.435 246.034 251.793 244.744C251.151 243.454 250.561 241.266 249.503 236.266C246.747 224.976 244.31 215.951 242.509 211.457C241.498 208.799 240.685 205.791 239.134 200.048C236.992 192.117 236.992 192.117 237.168 190.595C237.343 189.073 236.752 186.885 234.957 179.15C234.343 175.791 233.973 174.424 233.258 172.86C231.9 170.006 231.457 168.365 231.559 166.57C231.808 165.321 231.808 165.321 230.746 163.562C229.956 161.725 228.428 157.153 226.11 150.744C225.025 147.813 224.73 146.719 224.781 145.821C224.832 144.923 224.536 143.829 224.388 143.282C223.576 140.274 220.962 132.771 220.371 130.583C219.73 129.293 219.014 127.729 218.718 126.636C217.855 124.525 217.361 123.782 215.43 123.151C212.46 121.933 210.405 121.927 206.788 122.658C202.353 123.62 197.646 124.661 196.136 124.5C194.699 124.613 194.154 124.767 192.791 125.154C191.156 125.618 190.884 125.695 190.265 125.576C189.646 125.457 188.953 125.064 188.953 125.064C188.533 124.595 188.26 124.672 187.516 125.177C186.228 125.837 185.682 125.992 184.643 125.403C183.331 124.892 182.837 124.149 182.888 123.251C183.087 122.9 184.699 121.265 185.244 121.111C185.244 121.111 185.716 120.683 186.187 120.255C186.857 119.476 187.129 119.399 188.492 119.012C189.928 118.899 191.688 117.812 192.358 117.033C192.557 116.682 193.375 116.45 195.629 116.105C198.627 115.255 198.627 115.255 206.087 111.374C212.06 108.502 213.548 107.492 213.871 106.517C214.467 105.465 214.597 101.6 214.625 99.5312C214.477 98.9843 213.789 95.3517 212.903 92.0699C211.181 84.6087 210.346 80.4291 208.089 66.6422C206.617 57.9324 205.878 55.1976 204.895 50.4711C203.565 45.5484 203.27 44.4545 203.371 42.6591C203.201 40.9409 203.127 40.6674 202.485 39.3773C201.917 38.3606 201.769 37.8137 201.797 35.7448C201.456 32.3084 200.501 25.513 198.853 18.3252C197.745 14.223 197.648 12.7783 198.045 12.0768C198.244 11.726 198.567 10.751 198.766 10.4003C198.692 10.1268 199.09 9.4253 199.09 9.4253C199.833 8.91999 200.106 8.84271 200.725 8.96166C201.344 9.08059 202.184 10.02 202.406 10.8404C202.48 11.1139 202.974 11.8571 203.394 12.3268C204.235 13.2662 204.382 13.8131 205.024 15.1032C205.468 16.7441 205.888 17.2138 207.149 18.6229C208.063 19.8358 208.977 21.0486 209.545 22.0653C210.113 23.0819 210.755 24.3721 211.596 25.3115C212.51 26.5243 212.658 27.0713 213.471 30.0796C213.692 30.9 214.135 32.5409 214.431 33.6348C215.073 34.925 215.442 36.2924 215.811 37.6598C216.301 41.6431 219.869 55.9414 222.233 64.6929C223.858 70.7095 224.449 72.8973 224.324 73.5216C224.273 74.4193 224.495 75.2397 224.989 75.9829C225.756 76.6488 226.125 78.0162 228.932 88.4085C232.159 99.2705 232.676 101.185 233.369 101.577C233.443 101.851 235.425 101.583 237.679 101.239C241.37 100.781 241.915 100.627 247.911 98.9265C256.087 96.6083 259.158 96.0318 265.052 96.1272C268.618 96.2938 270.401 96.3772 271.219 96.1453C272.309 95.8362 273.547 96.0741 274.314 96.74Z" fill="#ED3D3D"/>
<path d="M717.455 364.569C718.143 366.223 718.184 366.788 717.439 368.262C716.957 369.434 716.412 369.757 714.193 370.487C713.083 370.851 712.539 371.175 712.015 371.781C709.354 374.247 707.196 375.824 702.254 378.171C694.287 381.875 677.365 391.342 676.034 392.575C675.51 393.181 675.531 393.464 675.572 394.029C675.675 395.441 676.45 402.202 677.508 408.941C678.161 414.007 678.566 415.681 678.345 416.549C678.387 417.114 678.33 420.243 678.535 423.068C678.561 427.327 678.381 428.76 678.181 429.911C678.021 431.627 678.063 432.192 678.854 435.258C678.956 436.671 679.018 437.519 679.182 439.779C678.817 454.291 678.925 459.68 679.356 465.613C680.193 473.221 680.342 479.175 680.229 485.432C680.275 489.973 680.419 491.951 680.645 495.059L680.932 499.014L680.316 506.16C679.458 513.891 679.478 514.173 679.684 516.999C680.11 518.956 679.91 520.107 678.903 521.884C678.379 522.49 678.117 522.793 677.269 522.855C676.724 523.179 676.159 523.22 675.877 523.24C675.271 522.716 674.562 520.779 672.697 514.666C671.542 510.49 671.177 509.38 670.812 508.271C670.124 506.617 669.8 506.072 669.795 502.096C669.528 498.423 669.061 495.901 668.696 494.791C668.393 494.529 668.352 493.964 668.331 493.682C668.249 492.551 667.72 489.181 666.667 486.418C666.282 485.026 665.876 483.351 665.815 482.503C665.753 481.656 665.404 476.853 665.034 471.767C663.966 457.075 663.945 456.792 662.928 450.618C662.035 446.138 661.629 444.464 661.177 438.248C660.992 435.705 660.422 431.77 660.237 429.227C659.749 426.422 659.338 420.772 659.025 412.557C658.532 405.777 658.404 400.105 658.363 399.54C658.019 398.713 657.11 397.927 656.544 397.968C656.262 397.989 654.587 398.395 652.933 399.083C650.431 399.833 649.866 399.874 647.041 400.079C642.823 400.67 638.888 401.24 636.669 401.969C633.058 403.084 631.666 403.469 629.688 403.613L627.69 403.474L627.084 402.95C626.78 402.688 626.457 402.144 626.739 402.123C626.678 401.276 627.967 399.478 629.298 398.245C631.414 396.103 633.592 394.808 637.486 393.673C638.334 393.612 639.423 392.964 640.229 392.338C641.036 391.711 642.408 391.043 643.235 390.699C643.779 390.375 645.151 389.708 646.219 388.778C649.204 386.857 650.01 386.23 652.23 385.501C653.057 385.156 654.166 384.792 654.166 384.792C654.166 384.792 654.428 384.489 654.69 384.186C655.517 383.841 656 382.67 656.704 380.631C657.408 378.591 657.346 377.744 656.776 373.809C656.329 371.569 656.268 370.721 656.386 368.441C656.54 362.749 655.826 356.836 654.486 350.117C654.059 348.16 653.998 347.312 653.988 339.36C653.921 334.536 653.901 334.254 654.363 332.8C654.825 331.346 654.805 331.064 654.8 327.088C654.897 324.524 654.713 321.981 654.933 321.113C654.851 319.983 654.851 319.983 654.548 319.721C654.548 319.721 654.266 319.742 654.245 319.459C653.618 318.653 653.932 311.245 654.271 308.096C654.492 307.228 654.692 306.077 654.528 303.817C654.323 300.992 654.302 300.709 653.655 299.62C653.331 299.075 652.684 297.986 652.643 297.421C652.319 296.877 651.39 295.808 650.742 294.719C649.145 292.279 648.78 291.169 647.969 287.82C647.178 284.753 646.53 283.664 645.236 281.486C643.659 279.328 642.323 276.585 642.303 276.303C642.282 276.02 642.241 275.455 641.917 274.911C641.25 273.539 641.126 271.844 641.65 271.238C641.63 270.955 642.154 270.349 642.719 270.308C644.07 269.357 644.656 269.599 648.293 272.743C649.808 274.053 651.606 275.342 652.495 275.846C653.363 276.067 654.293 277.135 654.899 277.659C656.414 278.969 659.244 282.74 659.589 283.567C659.953 284.676 660.924 286.31 663.107 288.992C664.946 290.846 665.552 291.37 669.98 297.581C673.134 301.896 673.114 301.614 674.449 304.357C675.764 306.817 677.038 308.713 678.251 309.761C679.201 311.112 680.757 312.987 681.405 314.076C681.728 314.621 682.679 315.972 683.911 317.302C684.841 318.371 686.459 321.094 688.036 323.251C689.31 325.147 691.555 328.676 692.829 330.571C696.266 334.866 697.216 336.217 699.461 339.746C702.697 345.192 708.378 353.016 713.654 359.165C716.464 362.653 717.09 363.459 717.455 364.569ZM696.244 365.827C696.768 365.221 696.707 364.373 696.362 363.546C696.059 363.284 695.047 361.085 693.753 358.907C692.438 356.447 690.82 353.724 690.193 352.917C689.546 351.828 688.231 349.368 686.936 347.19C684.024 342.289 683.074 340.938 679.637 336.643C676.524 332.893 674.927 330.453 671.023 323.636C669.687 320.893 668.089 318.453 667.807 318.473L667.483 317.929L667.242 318.514C666.98 318.817 667.345 319.927 667.832 322.732C668.32 325.537 668.444 327.232 668.567 328.927C668.67 330.34 668.813 332.317 668.875 333.165C669.039 335.425 670.806 344.102 671.212 345.776C671.274 346.624 671.721 348.864 671.885 351.124C672.172 355.08 672.172 355.08 671.772 357.381C671.35 359.4 671.371 359.682 671.433 360.53C672.265 364.162 673.77 373.141 673.872 374.554C674.016 376.532 674.098 377.662 674.381 377.642C674.663 377.621 675.208 377.297 675.752 376.974C676.297 376.65 677.386 376.003 677.951 375.962C679.323 375.294 681.783 373.979 683.961 372.685C685.05 372.037 687.229 370.743 689.145 369.751C694.631 367.08 696.003 366.413 696.244 365.827ZM818.828 455.757C820.971 457.874 821.417 460.114 820.369 461.326C820.107 461.629 820.107 461.629 818.957 461.429C817.523 461.249 816.635 460.745 813.039 458.167C812.109 457.098 810.635 456.353 810.029 455.829C807.08 454.339 806.191 453.836 801.748 451.319C799.667 450.05 798.738 448.981 795.948 445.776C794.998 444.425 792.532 441.764 790.976 439.888C789.137 438.034 786.651 435.09 784.812 433.236C780.183 428.176 779.254 427.107 776.202 424.205C774.687 422.895 772.868 421.323 772.545 420.778C771.939 420.254 769.493 417.876 767.048 415.497C764.341 413.422 760.966 409.975 759.43 408.382C756.358 405.197 749.973 399.413 745.427 395.483C743.932 394.455 743.064 394.234 743.146 395.365C743.167 395.647 743.151 399.341 743.418 403.014C743.706 406.969 743.731 411.228 743.814 412.358C743.937 414.053 744.04 415.466 744.486 417.706C745.319 421.337 745.955 430.096 745.534 432.115C745.113 434.134 745.195 435.264 745.95 441.742C746.664 447.654 746.705 448.22 746.222 449.391C746.022 450.541 746.124 451.954 746.72 460.148C747.151 466.081 747.197 470.622 747.341 472.6C747.202 474.598 747.49 478.554 748.291 489.573C749.744 505.657 750.196 511.872 750.525 516.393C750.669 518.371 750.895 521.479 751.342 523.718C751.973 528.501 752.302 533.022 752.204 535.585C751.845 538.451 752.214 543.537 752.964 546.039C754.038 549.085 754.587 552.738 754.572 556.431C754.695 558.126 754.618 560.972 754.762 562.95C754.926 565.21 755.07 567.188 755.537 569.71C756.046 572.798 756.087 573.363 755.928 575.078C755.609 578.51 755.63 578.793 756.035 580.467C756.138 581.88 756.159 582.162 756.22 583.01C755.516 585.049 754.689 585.394 752.912 584.387C752.023 583.883 752.023 583.883 749.594 577.811C745.767 568.148 746.131 569.258 745.741 563.89L745.13 559.39L744.442 557.736C743.794 556.647 743.106 554.992 742.741 553.883C742.033 551.946 741.991 551.381 741.36 546.598C740.949 540.948 740.543 539.273 739.187 536.247C738.56 535.441 738.175 534.049 737.749 532.091C737.281 529.569 737.261 529.287 737.703 527.55C738.083 524.966 738.001 523.836 737.292 521.9C737.23 521.052 736.824 519.377 736.763 518.53C736.193 514.595 735.232 505.292 735.191 504.726C734.888 504.464 735.006 502.184 734.822 499.641C734.637 497.098 734.452 494.555 734.39 493.708C734.329 492.86 734.164 490.6 734.062 489.187C734.2 487.189 733.933 483.516 733.363 479.581C733.117 476.19 732.87 472.8 732.829 472.235C733.189 469.368 730.647 438.31 729.404 429.027C728.957 426.787 728.752 423.962 728.649 422.549C728.382 418.876 728.516 412.902 728.675 411.186C728.875 410.036 728.629 406.645 727.843 391.933C726.38 367.897 725.8 356.009 726.498 349.994C726.776 345.997 726.694 344.867 726.447 341.477C726.021 339.52 725.918 338.107 726.314 331.83C726.309 327.853 726.566 323.574 726.484 322.444C726.36 320.749 726.36 320.749 725.39 319.115C724.763 318.309 722.297 315.648 720.114 312.966C717.951 310.567 715.465 307.624 714.818 306.535C713.544 304.639 711.561 300.807 711.197 299.697C710.873 299.153 711.335 297.699 711.9 297.658C712.707 297.031 716.159 297.632 717.916 298.356C721.126 299.543 738.664 314.174 741.474 317.662C742.424 319.013 746.343 322.136 750.222 324.695C754.686 327.495 760.121 331.928 761.939 333.5C763.778 335.354 767.112 338.236 768.607 339.264C770.667 340.25 771.576 341.036 774.021 343.415C775.254 344.745 777.376 346.579 779.194 348.151C782.81 351.013 783.72 351.799 785.6 354.218C786.55 355.569 786.874 356.114 786.935 356.961C787.038 358.374 786.555 359.545 784.942 360.799C784.115 361.143 783.329 362.052 782.784 362.376C780.668 364.518 779.599 365.448 776.009 366.845C774.072 367.554 771.873 368.566 771.046 368.91C770.522 369.516 769.151 370.184 768.344 370.81C765.601 372.146 762.878 373.764 758.804 376.332C756.647 377.909 754.751 379.183 753.924 379.527C753.38 379.851 752.856 380.457 752.594 380.76C752.09 381.649 752.434 382.476 754.535 384.028C757.849 386.627 760.597 389.267 762.76 391.666C766.134 395.114 768.277 397.23 771.266 399.285C772.782 400.595 774.883 402.146 775.812 403.215C779.814 407.468 786.302 414.666 788.182 417.085C789.415 418.416 790.992 420.573 791.901 421.359C792.831 422.428 794.125 424.606 795.096 426.239C796.046 427.591 797.32 429.486 797.947 430.293C798.553 430.817 799.504 432.168 800.11 432.692C800.454 433.519 801.666 434.567 802.293 435.373C802.899 435.897 804.456 437.772 805.426 439.406C807.671 442.935 808.318 444.024 809.228 444.81C809.834 445.334 810.764 446.403 811.411 447.492C812.341 448.56 813.594 450.173 814.503 450.959C815.695 451.725 816.625 452.793 816.948 453.338C817.554 453.862 818.202 454.951 818.828 455.757ZM741.781 368.765C742.063 368.745 745.351 367.085 752.147 362.899C759.226 358.692 763.099 357.274 767.338 356.966C768.75 356.863 769.012 356.56 769.254 355.975C769.516 355.672 769.757 355.086 769.716 354.521C769.675 353.956 769.654 353.673 768.442 352.625C767.553 352.122 766.927 351.315 766.603 350.771C766.3 350.509 765.694 349.985 765.108 349.743C761.877 348.274 758.302 345.978 756.16 343.861C755.533 343.055 754.321 342.007 753.715 341.483C752.846 341.262 750.422 339.166 748.3 337.332C743.148 332.878 743.43 332.857 741.961 336.089C741.257 338.128 740.816 339.864 740.476 343.013C740.518 343.578 740.523 347.554 740.528 351.53C740.815 355.486 740.943 361.157 741.128 363.7C741.436 367.938 741.498 368.786 741.781 368.765ZM861.074 305.843C862.209 309.737 862.497 313.692 861.957 317.992C861.901 321.12 861.942 321.685 862.928 335.247C863.482 342.875 864.201 352.764 864.53 357.285C865.244 363.198 865.47 366.305 865.29 367.739C864.992 371.453 865.028 383.663 865.336 387.902C865.3 391.313 865.382 392.443 866.132 394.944C866.62 397.749 866.722 399.162 867.051 403.682C867.344 411.614 868.042 421.22 869.064 431.371C869.619 439 869.721 440.412 869.583 442.411C869.423 444.126 869.264 445.842 869.428 448.102C869.896 450.625 869.695 451.775 869.618 454.621C869.176 456.358 869.12 459.486 869.284 461.746C869.166 464.027 869.233 468.851 868.935 472.565C868.94 476.541 868.703 481.103 868.564 483.101C868.693 488.772 868.271 490.791 866.381 496.041C864.49 501.291 864.773 501.27 862.23 501.455C860.797 501.275 860.514 501.296 860.191 500.751C858.999 499.986 858.131 499.765 856.739 500.15C855.346 500.536 853.61 500.094 851.833 499.087C850.076 498.362 840.198 491.412 836.299 488.571C829.41 483.675 821.854 477.408 819.65 474.444C818.114 472.851 816.82 470.673 816.111 468.736C815.767 467.909 815.422 467.082 815.258 464.822C815.114 462.844 815.012 461.432 814.626 460.039C814.241 458.647 813.835 456.973 813.712 455.277C813.609 453.865 813.486 452.169 813.121 451.06C813.039 449.93 812.49 446.277 812.223 442.604C811.504 432.715 808.104 393.766 807.611 386.986C807.103 383.898 806.933 377.662 806.646 373.706C806.641 369.73 805.922 359.842 805.347 351.931L804.299 337.521L804.638 334.372C805.239 330.92 804.792 328.68 803.555 323.374C803.087 320.851 802.681 319.177 802.373 314.939C801.351 304.788 801.952 301.336 805.723 298.505C807.598 296.949 809.817 296.22 813.49 295.953C815.165 295.547 818.252 295.038 820.189 294.329C828.562 292.301 831.085 291.833 838.975 290.976C843.213 290.667 846.866 290.118 847.148 290.097C849.953 289.609 852.516 289.707 853.667 289.907C855.141 290.652 857.525 292.183 858.496 293.817C859.122 294.623 859.164 295.188 859.651 297.993C859.898 301.384 859.918 301.666 861.074 305.843ZM851.261 366.202C850.588 360.855 849.541 346.445 849.839 342.731C849.957 340.45 849.936 340.168 849.186 337.666C848.395 334.599 848.498 336.012 847.261 315.084C846.706 307.455 846.48 304.347 846.177 304.085C846.156 303.803 845.571 303.561 845.268 303.299C844.096 302.816 839.314 303.448 832.857 304.486C828.639 305.076 827.247 305.462 826.096 305.261C823.533 305.164 816.228 306.263 815.442 307.172C815.18 307.475 815.201 307.758 815.406 310.583C815.591 313.126 815.673 314.256 816.443 317.04C818.349 323.718 818.329 323.436 820.455 344.868C821.189 351.063 821.23 351.628 820.891 354.777C820.531 357.643 820.634 359.056 821.209 366.967C821.743 374.313 821.887 376.291 821.445 378.027C821.307 380.025 821.348 380.59 821.877 383.96C822.365 386.765 822.447 387.895 822.329 390.176C822.251 393.022 822.354 394.435 823.428 397.481C824.198 400.265 824.527 404.786 824.373 410.478C824.357 414.171 824.48 415.866 824.727 419.257C824.932 422.082 825.096 424.342 824.978 426.623C824.901 429.469 824.942 430.034 825.389 432.274C826.242 436.188 826.709 438.711 826.452 442.99C826.416 446.401 826.56 448.379 826.991 454.312C827.34 459.115 827.849 462.202 827.89 462.767C828.517 463.574 829.123 464.098 836.135 470.689C839.489 473.853 842.217 476.211 843.994 477.218C846.984 479.273 849.691 481.349 850.338 482.438C850.662 482.982 851.289 483.789 851.895 484.313C852.804 485.099 853.107 485.361 853.955 485.299C854.823 485.52 855.105 485.5 855.367 485.196C855.609 484.611 855.568 484.046 855.537 475.811C855.101 465.902 855.055 461.361 855.127 454.539C855.183 451.41 855.178 447.434 855.076 446.022C854.973 444.609 854.767 441.783 854.906 439.785C855.04 433.811 854.732 429.573 853.73 419.705C853.34 414.336 852.359 404.751 851.907 398.535L851.086 387.233L851.481 380.956C851.954 371.833 851.893 370.985 851.261 366.202ZM869.121 260.381C868.757 259.271 869.301 258.948 870.128 258.603C871.238 258.239 873.216 258.095 874.669 258.557C875.538 258.778 877.274 259.22 879.031 259.944C886.058 262.842 889.551 264.008 891.873 264.691C893.306 264.871 895.043 265.313 895.608 265.272C897.344 265.714 900.555 266.901 902.897 267.866C903.786 268.37 905.24 268.832 906.108 269.053C908.147 269.757 909.601 270.219 911.378 271.226C913.438 272.213 915.781 273.178 916.911 273.096C917.476 273.055 918.647 273.538 919.839 274.304C920.728 274.807 921.899 275.29 921.899 275.29C921.899 275.29 922.767 275.511 923.373 276.035C924.262 276.538 925.433 277.021 926.019 277.263C928.341 277.946 931.007 279.456 933.108 281.008C936.118 283.345 937.895 284.352 938.501 284.876C939.976 285.621 941.491 286.931 942.138 288.02C943.474 290.763 944.45 296.373 944.64 302.892C944.706 307.715 944.953 311.106 945.4 313.346C945.461 314.193 945.543 315.323 945.585 315.888C945.626 316.453 945.749 318.149 946.298 321.801C946.889 326.019 947.582 331.649 949.159 349.428L951.347 371.707L950.905 373.444C950.463 375.18 950.484 375.463 951.156 380.81C951.506 385.613 951.588 386.743 951.67 387.874C951.49 389.307 951.552 390.154 951.654 391.567C952.692 398.024 952.692 398.024 952.553 400.023C952.373 401.456 952.235 403.454 952.419 405.997C952.425 409.973 953.857 425.775 955.408 439.295C955.675 442.968 956.045 448.054 956.533 450.859C956.944 456.51 957.904 465.813 958.351 468.052C958.777 470.01 958.618 471.725 957.914 473.765C957.431 474.936 957.169 475.239 954.529 477.987C952.936 479.523 951.626 481.039 951.364 481.342C951.082 481.362 950.84 481.948 950.599 482.533C949.13 485.765 946.469 488.23 941.789 490.275C939.873 491.266 939.328 491.59 937.494 493.711C936.708 494.621 935.357 495.571 934.551 496.198C933.744 496.824 931.304 498.422 929.429 499.978C922.453 505.598 919.468 507.519 916.704 508.572C914.223 509.605 912.851 510.272 910.755 512.697C909.183 514.515 908.639 514.839 907.267 515.507C905.613 516.195 905.634 516.478 903.918 516.318C901.92 516.18 901.375 516.503 900.327 517.716C899.017 519.231 898.473 519.555 897.625 519.616C897.06 519.657 896.474 519.416 896.171 519.154L895.283 518.65L895.442 516.935C895.38 516.087 895.298 514.957 895.56 514.654C895.76 513.503 898.519 508.474 900.333 506.07C903.173 502.171 904.684 499.505 905.326 496.618C905.727 494.317 905.948 493.448 904.525 485.599C903.467 478.859 902.604 466.993 902.661 463.864C902.697 460.453 902.307 455.085 901.618 453.431C901.212 451.756 900.868 450.929 901.29 448.91C901.228 448.063 901.305 445.217 901.038 441.544C900.114 428.83 899.76 404.429 900.408 389.896C900.696 378.23 900.757 379.078 899.601 374.901C898.769 371.269 898.708 370.422 897.706 360.554C896.787 351.815 896.623 349.555 896.741 347.274C896.797 344.146 896.448 339.343 895.848 327.173C895.149 317.567 895.026 315.872 895.36 308.747C895.453 302.207 895.186 298.534 894.636 294.882C894.23 293.207 893.66 289.272 893.434 286.164C892.7 279.969 892.659 279.404 891.405 277.791C890.476 276.722 889.284 275.957 885.123 273.419C883.346 272.412 881.265 271.143 880.376 270.64C879.75 269.833 877.972 268.826 876.76 267.778C875.265 266.751 874.053 265.703 873.123 264.634C871.567 262.759 870.96 262.235 869.789 261.752C869.183 261.228 869.183 261.228 869.121 260.381ZM926.963 290.259C926.316 289.17 926.316 289.17 916.987 285.872C912.909 284.464 909.416 283.298 908.871 283.622C908.306 283.663 907.761 283.986 907.823 284.834C907.623 285.985 909.025 293.552 910.098 296.598C910.766 297.97 910.787 298.252 910.53 302.531C910.35 303.964 911.701 318.636 912.004 318.898C912.004 318.898 912.23 322.006 912.214 325.699L912.142 332.521L914.083 351.41C914.967 363.559 915.804 371.167 915.603 372.318C915.485 374.599 915.891 376.273 916.702 379.623C917.838 383.517 917.961 385.212 917.267 395.203C916.753 403.762 916.794 404.327 917.385 408.544C918.196 411.893 918.017 413.327 917.888 423.277C917.677 432.097 917.456 432.965 917.826 438.051C917.99 440.311 918.016 444.57 918.221 447.395C918.211 455.065 918.622 460.716 919.274 465.781C919.479 468.606 919.685 471.432 919.787 472.844C919.608 474.277 919.751 476.255 919.833 477.385C919.654 478.819 919.797 480.796 919.597 481.947C919.258 485.096 919.561 485.358 920.47 486.144C921.076 486.668 921.359 486.647 922.489 486.565C923.902 486.463 925.253 485.512 926.542 483.714C928.376 481.593 932.409 478.459 934.87 477.144C936.524 476.456 937.592 475.526 938.64 474.314C939.688 473.102 939.909 472.233 940.068 470.518C940.207 468.519 939.976 461.435 939.221 454.958C938.913 450.72 938.79 449.024 938.867 446.178C938.939 439.357 938.836 437.944 938.184 432.879C937.311 428.682 937.249 427.834 937.08 421.598C936.69 416.23 936.546 414.252 936.099 412.012C935.57 408.642 935.344 405.534 935.355 397.865C935.529 392.455 935.406 390.76 935.119 386.805C934.343 380.044 934.317 375.786 934.852 367.51C935.191 364.361 934.903 360.406 934.154 357.904C933.768 356.512 933.26 353.424 933.075 350.881C932.608 348.359 932.12 345.554 932.058 344.707C931.976 343.577 931.77 340.751 931.565 337.926C931.36 335.1 930.908 328.885 930.579 324.364C930.23 319.561 930.143 314.455 930.06 313.325C930.179 311.044 929.711 308.521 928.982 306.302C928.638 305.475 928.597 304.91 928.432 302.65C928.33 301.237 928.386 298.109 927.919 295.586C927.611 291.348 927.611 291.348 926.963 290.259ZM1034.45 433.833C1034.88 435.79 1034.92 436.355 1034.96 436.92C1034.46 437.809 1033.08 438.477 1031.33 437.752C1030.18 437.552 1024.09 432.03 1022.54 430.154C1020.96 427.997 1017.61 424.832 1016.74 424.611C1016.46 424.632 1015.31 424.432 1014.18 424.514C1013.31 424.293 1012.46 424.355 1012.16 424.093C1012.16 424.093 1011.07 424.74 1009.7 425.408C1006.45 427.632 1003.69 428.685 996.966 430.025C994.988 430.169 992.204 430.94 990.812 431.325C989.42 431.71 987.463 432.136 986.636 432.481C985.788 432.542 984.678 432.907 984.134 433.231C983.024 433.595 982.197 433.939 979.654 434.124C976.264 434.371 975.416 434.432 974.224 433.667C973.618 433.143 972.909 431.206 972.786 429.511C972.745 428.946 972.663 427.816 972.36 427.554C971.995 426.444 971.995 426.444 972.838 422.407C973.783 419.782 973.762 419.499 973.357 417.824C973.295 416.977 973.213 415.847 973.192 415.564C972.869 415.019 973.069 413.869 973.49 411.85C973.912 409.831 974.071 408.115 974.066 404.139C974.143 401.293 974.523 398.71 974.523 398.71C974.462 397.862 976.25 391.199 976.671 389.18C978.037 384.537 978.438 382.235 978.392 377.694C978.551 375.978 978.628 373.132 978.788 371.417C978.947 369.701 979.348 367.399 979.245 365.987C979.543 362.273 979.744 361.122 980.73 359.062C981.213 357.891 981.696 356.72 981.937 356.134C982.379 354.398 983.345 352.055 983.869 351.449C984.131 351.146 984.413 351.126 984.999 351.367C985.564 351.326 985.867 351.588 986.211 352.415C986.535 352.96 987.182 354.049 987.264 355.179C987.608 356.006 988.014 357.68 988.358 358.508C988.723 359.617 989.108 361.009 989.17 361.857C989.232 362.705 989.314 363.835 989.658 364.662C990.408 367.163 990.474 371.987 989.791 374.309C989.349 376.045 989.39 376.61 989.801 382.261C989.991 388.78 989.893 391.343 989.452 393.08C989.21 393.665 989.01 394.816 988.809 395.967C988.589 396.835 988.167 398.854 987.987 400.287C986.842 404.063 986.903 404.91 987.633 407.129C988.342 409.066 988.444 410.479 987.741 412.518C987.499 413.104 987.581 414.234 987.622 414.799C987.684 415.647 987.463 416.515 987.222 417.1C987.001 417.969 986.78 418.837 986.538 419.422C986.579 419.987 986.6 420.27 987.165 420.229C988.054 420.732 989.163 420.368 989.949 419.458C991.28 418.225 995.657 415.919 997.331 415.513C999.006 415.108 999.55 414.784 1000.9 413.834C1002.23 412.601 1004.17 411.892 1006.69 411.424C1008.93 410.978 1009.76 410.633 1010.54 409.724C1011.59 408.512 1011.81 407.644 1011.48 403.123C1011.33 393.193 1011.37 389.782 1011.99 386.613C1012.41 384.594 1012.53 382.313 1012.28 378.923C1012.01 375.25 1011.91 369.861 1011.86 365.32C1011.96 362.756 1011.92 362.191 1011.55 361.082C1011.49 360.234 1011.08 358.56 1010.7 357.167C1010.53 354.907 1010.47 354.059 1010.65 352.626C1010.57 351.496 1010.73 349.78 1010.65 348.65C1010.48 346.39 1010.6 344.109 1011.55 341.484C1011.99 339.748 1012.09 337.184 1012.12 333.773C1012 332.078 1012.16 330.362 1012.12 329.797C1012.08 329.232 1012.28 328.082 1012.22 327.234C1012.62 324.933 1013.08 323.479 1013.89 322.852C1014.95 321.922 1015.52 321.881 1016.41 322.385C1017.58 322.868 1017.92 323.695 1018.11 326.238C1018.53 328.195 1018.58 328.76 1018.9 329.304C1019.2 329.566 1019.24 330.131 1019.63 331.524C1019.65 331.806 1019.95 332.068 1020.54 332.31C1021.45 333.096 1021.75 333.358 1022.22 335.88C1022.79 339.815 1023.36 343.75 1023.02 346.899C1022.8 351.743 1023.15 352.57 1024.12 354.204L1024.79 355.575L1025.22 361.509C1025.48 365.182 1025.77 369.137 1025.98 371.962C1026.55 375.897 1026.61 376.745 1026.43 378.178C1026.29 380.177 1026.52 383.284 1026.96 385.524C1027.39 387.481 1027.43 388.046 1027.11 391.478C1026.93 392.911 1026.79 394.909 1026.61 396.343C1026.72 397.755 1026.6 400.036 1026.42 401.469C1025.7 407.202 1025.92 410.31 1027.56 413.315C1027.93 414.425 1028.6 415.797 1028.94 416.624C1029 417.471 1029.65 418.56 1029.97 419.105C1030.32 419.932 1030.36 420.497 1030.38 420.78C1030.38 420.78 1030.7 421.324 1031.02 421.869C1032 423.502 1032.77 426.287 1033.25 429.091C1033.36 430.504 1033.8 432.744 1034.45 433.833ZM1106.84 281.726C1107.61 280.535 1108.68 279.605 1109.79 279.24C1111.42 278.269 1111.7 278.249 1113.14 278.429C1114.31 278.911 1114.33 279.194 1114.47 281.172C1114.64 283.432 1114.2 285.168 1112.93 287.249C1112.14 288.158 1111.66 289.329 1111.68 289.612C1111.78 291.024 1110.79 293.084 1108.68 295.226C1107.35 296.459 1105.8 298.56 1104.55 300.923C1100.24 308.053 1091.53 321.183 1089.96 323.002C1085.97 326.7 1081.9 333.245 1076.69 343.565C1075.46 346.211 1073.45 349.765 1072.42 351.26C1070.41 354.815 1069.66 356.289 1069.56 358.853C1068.98 362.587 1070.38 366.178 1076.45 375.394C1080.01 381.384 1081 383.3 1081.12 384.995C1081.16 385.56 1082.17 387.759 1083.47 389.937C1087.78 398.429 1091.87 407.788 1092.76 412.268C1093.27 415.355 1095.25 419.188 1098.02 422.111C1100.49 424.772 1100.83 425.599 1101.62 428.666C1101.99 429.775 1102.74 432.277 1103.71 433.911C1104.39 435.565 1106.1 439.417 1107.47 442.726C1108.57 446.055 1110.95 451.562 1112.35 455.152C1115.85 464.271 1117.31 468.709 1118.61 474.863C1120.26 481.844 1120.26 481.844 1118.93 483.077L1117.86 484.007L1116.38 483.262C1114.91 482.517 1114.61 482.255 1109.51 474.673C1108.86 473.584 1107.29 471.426 1106.62 470.055C1105.69 468.986 1103.75 465.719 1102.41 462.976C1099.48 457.792 1097.56 454.808 1095.7 452.671C1093.88 451.099 1092.89 449.183 1091.51 445.874C1090.76 443.373 1090.13 442.566 1088.25 440.146C1085.12 436.114 1080.25 427.663 1079.13 424.052C1078.08 421.288 1077.09 419.372 1076.07 417.173C1075.47 416.649 1075.06 414.975 1074.7 413.865C1074.21 411.06 1074.21 411.06 1072.03 408.379C1071.1 407.31 1070.43 405.939 1070.43 405.939C1070.41 405.656 1068.12 401.562 1065.23 396.943C1061.67 390.954 1060.03 387.948 1059.65 386.556C1059.26 385.164 1058.57 383.51 1057.95 382.703C1057.3 381.614 1056.94 380.505 1056.83 379.092C1056.75 377.962 1056.39 376.852 1056.08 376.59C1055.76 376.046 1054.37 376.431 1053.02 377.381C1050.88 379.241 1047.55 380.335 1045.23 379.652C1044.64 379.41 1044.08 379.451 1043.55 380.058C1042.18 380.725 1040.2 380.869 1039.32 380.366C1038.99 379.821 1038.95 379.256 1038.85 377.843C1038.64 375.018 1039.85 372.09 1043.48 367.282C1045.03 365.181 1046.06 363.686 1048.33 359.828C1048.55 358.96 1049.3 357.486 1050.1 356.859C1050.61 355.97 1051.63 354.475 1052.1 353.022C1052.86 351.83 1053.87 350.052 1054.63 348.861C1056.45 346.457 1057.46 344.679 1059.41 340.277C1060.88 337.046 1062.19 335.53 1065.11 332.762C1066.7 331.226 1068.54 329.104 1070.07 326.721C1077.26 316.257 1080.12 312.64 1084.09 308.659C1088.35 304.658 1089.39 303.445 1091.17 300.476C1093.99 296.295 1096.61 293.264 1104.49 284.454C1105.29 283.827 1106.34 282.615 1106.84 281.726ZM1226.82 315.892C1230.82 316.17 1231.71 316.673 1231.55 318.389C1231.08 319.843 1230 320.49 1222.23 323.043C1218.33 324.178 1217.79 324.502 1217 325.411C1214.87 327.271 1213.74 327.353 1207.5 327.522C1204.09 327.486 1202.7 327.871 1200.24 329.186C1199.15 329.834 1198.58 329.875 1197.17 329.977C1192.65 330.306 1192.37 330.327 1190.43 331.035C1188.49 331.744 1187.65 331.806 1178.93 333.008C1176.95 333.152 1176.69 333.455 1176.71 333.737C1177.34 334.544 1177.54 337.369 1178.16 345.845C1178.53 350.931 1178.84 355.169 1178.86 355.451C1178.57 355.472 1178.72 357.45 1178.58 359.448C1178.34 364.01 1178.35 371.962 1178.92 375.897C1179.05 377.592 1179.29 380.982 1179.17 383.263C1179.22 387.804 1179.41 398.299 1179.54 403.971C1179.75 406.796 1179.87 408.491 1180.34 411.013C1180.79 413.253 1180.93 415.231 1181.09 417.491C1181.28 420.034 1181.4 421.729 1182.3 426.209C1182.82 429.579 1183.39 433.514 1183.86 436.036C1184.17 440.274 1184.64 442.796 1185.41 445.581C1185.49 446.711 1185.9 448.385 1186 449.798C1186.1 451.211 1186.25 453.189 1186.63 454.581C1187.08 456.82 1187.57 459.625 1188.54 465.235C1188.99 467.475 1189.13 469.452 1188.97 471.168C1188.13 475.206 1189.48 489.877 1191.17 497.424C1192.75 503.557 1194.09 510.276 1194.6 513.364C1195.08 516.169 1195.08 516.169 1194.79 519.883C1194.37 521.902 1194.27 524.465 1194.07 525.616C1193.91 527.331 1193.47 529.068 1192.68 529.977C1192.18 530.866 1191.05 530.948 1189.85 530.182C1188.95 529.396 1188.66 529.417 1187.29 526.109C1184.88 520.319 1182.55 511.684 1182.3 508.293C1182.15 506.316 1182.11 505.75 1181.38 503.531C1180.7 501.877 1180.33 500.767 1180.27 499.92C1180.15 498.225 1179.25 493.745 1177.99 488.156C1177.18 484.807 1176.72 482.284 1176.45 478.611C1175.96 475.807 1175.75 472.981 1175.41 472.154C1175.05 471.045 1174.64 469.37 1174.28 468.26C1173.48 465.193 1173.4 464.063 1172.87 460.693C1172.47 459.019 1171.94 455.649 1171.79 453.671C1171.35 451.431 1170.88 448.909 1170.8 447.779C1170.72 446.649 1170.23 443.844 1169.8 441.887C1168.91 437.407 1168.72 434.864 1168.7 430.606C1168.75 427.477 1168.63 425.782 1167.21 417.933C1164.1 402.537 1164.04 401.689 1164.59 389.72C1164.85 385.441 1165.02 380.032 1164.86 377.771C1164.97 375.491 1164.99 371.797 1165.11 369.516C1165.41 365.802 1165.37 365.237 1164.9 362.715C1164.43 360.193 1164.35 359.062 1164.3 354.521C1164.38 351.675 1164.42 348.264 1164.33 347.134C1164.67 343.985 1164.67 343.985 1163.7 342.352L1163.03 340.98L1163.39 338.114C1163.57 336.68 1163.47 335.268 1163.45 334.985C1163.17 335.006 1162.89 335.026 1162.04 335.088C1161.47 335.129 1159.76 334.97 1157.19 334.872C1153.76 334.553 1152.33 334.374 1150.07 334.538C1148.37 334.661 1146.11 334.825 1145.55 334.866C1142.4 334.527 1137.6 334.877 1133.14 336.053C1128.4 337.25 1127.83 337.291 1124.98 337.214C1122.4 336.833 1121.23 336.35 1120.6 335.544C1119.98 334.737 1119.93 334.172 1121.29 333.222C1122.62 331.989 1123.73 331.624 1127.86 329.904C1133.39 327.798 1135.04 327.109 1137.59 326.924C1139.54 326.498 1140.37 326.154 1141.74 325.486C1143.09 324.536 1143.66 324.495 1146.18 324.027C1147.59 323.925 1149.27 323.519 1150.09 323.175C1150.92 322.831 1152.9 322.687 1156.29 322.44C1161.35 321.788 1162.2 321.726 1162.71 320.838C1162.69 320.555 1162.89 319.405 1162.8 318.274C1163 317.124 1163.14 315.125 1163.34 313.975C1164.46 305.94 1164.9 300.228 1164.51 294.86C1164.46 290.319 1164.56 287.755 1165.2 284.868C1165.42 284 1165.4 283.718 1165.04 282.608C1164.67 281.498 1164.65 281.216 1165.25 277.764C1165.41 276.048 1166.02 272.596 1166.13 270.315C1166.69 266.298 1166.89 265.147 1167.7 264.521C1167.96 264.218 1168.25 264.197 1168.55 264.459C1169.7 264.659 1170 264.921 1170.67 266.293C1171.94 268.189 1172.29 269.016 1172.27 272.709C1172.28 276.685 1172.34 277.533 1174.02 281.103C1176 284.935 1176.08 286.066 1176.4 294.28C1176.66 297.953 1176.69 302.211 1176.79 303.624C1176.94 305.602 1177.02 306.732 1176.56 308.186C1176.09 309.639 1176.13 310.204 1176.68 313.857C1176.97 317.812 1177.34 318.922 1178.22 319.425C1178.51 319.405 1179.92 319.302 1181.9 319.158C1183.88 319.015 1185.59 319.174 1186.72 319.092C1189.31 319.472 1190.15 319.41 1195.8 319C1203.98 318.121 1208.46 317.228 1212.65 316.354C1216 315.543 1217.13 315.461 1219.11 315.317C1220.52 315.214 1222.24 315.374 1222.8 315.332C1223.39 315.574 1225.11 315.733 1226.82 315.892Z" fill="#ED3D3D"/>
</g>
<defs>
<clipPath id="clip0_174_4">
<rect width="1248" height="598" fill="white"/>
</clipPath>
<clipPath id="clip1_174_4">
<rect width="1000" height="420.626" fill="white" transform="translate(141 106)"/>
</clipPath>
</defs>
</svg>
